<mxfile host="Electron" agent="Mozilla/5.0 (X11; Linux x86_64) AppleWebKit/537.36 (KHTML, like Gecko) draw.io/24.7.5 Chrome/126.0.6478.183 Electron/31.3.0 Safari/537.36" version="24.7.5">
  <diagram name="Page-1" id="X1ycaZTHjPHVRzYqFp_j">
    <mxGraphModel dx="1185" dy="708" grid="1" gridSize="10" guides="1" tooltips="1" connect="1" arrows="1" fold="1" page="1" pageScale="1" pageWidth="1169" pageHeight="827" math="0" shadow="0">
      <root>
        <mxCell id="0" />
        <mxCell id="1" parent="0" />
        <mxCell id="A9NY03qchNruchLS8FG4-1" value="Virtual File System" style="rounded=0;html=1;fillColor=#647687;fontColor=#ffffff;strokeColor=#314354;fontSize=11;verticalAlign=middle;align=center;fontStyle=1" parent="1" vertex="1">
          <mxGeometry x="190" y="214" width="910" height="40" as="geometry" />
        </mxCell>
        <mxCell id="A9NY03qchNruchLS8FG4-2" value="Movie.mkv" style="html=1;shape=mxgraph.basic.document;fillColor=#76608a;fontColor=#ffffff;strokeColor=#432D57;fontSize=11;verticalAlign=middle;align=center;fontStyle=0" parent="1" vertex="1">
          <mxGeometry x="530" y="246" width="210" height="50" as="geometry" />
        </mxCell>
        <mxCell id="A9NY03qchNruchLS8FG4-66" value="" style="edgeStyle=orthogonalEdgeStyle;rounded=0;orthogonalLoop=1;jettySize=auto;html=1;verticalAlign=middle;align=center;fontStyle=0" parent="1" source="A9NY03qchNruchLS8FG4-3" target="A9NY03qchNruchLS8FG4-61" edge="1">
          <mxGeometry relative="1" as="geometry" />
        </mxCell>
        <mxCell id="A9NY03qchNruchLS8FG4-3" value="Ubuntu.iso" style="html=1;shape=mxgraph.basic.document;fillColor=#76608a;fontColor=#ffffff;strokeColor=#432D57;fontSize=11;verticalAlign=middle;align=center;fontStyle=0" parent="1" vertex="1">
          <mxGeometry x="200" y="246" width="320" height="50" as="geometry" />
        </mxCell>
        <mxCell id="A9NY03qchNruchLS8FG4-4" value="Cache" style="shape=datastore;html=1;fillColor=#008a00;strokeColor=#005700;fontColor=#ffffff;fontSize=11;verticalAlign=middle;align=center;fontStyle=0" parent="1" vertex="1">
          <mxGeometry x="40" y="418" width="80" height="66" as="geometry" />
        </mxCell>
        <mxCell id="A9NY03qchNruchLS8FG4-22" style="edgeStyle=orthogonalEdgeStyle;rounded=0;orthogonalLoop=1;jettySize=auto;html=1;entryX=1;entryY=0.5;entryDx=0;entryDy=0;fillColor=#60a917;strokeColor=#2D7600;fontSize=11;verticalAlign=middle;align=center;fontStyle=0" parent="1" source="A9NY03qchNruchLS8FG4-6" target="A9NY03qchNruchLS8FG4-4" edge="1">
          <mxGeometry relative="1" as="geometry" />
        </mxCell>
        <mxCell id="A9NY03qchNruchLS8FG4-23" style="edgeStyle=orthogonalEdgeStyle;rounded=0;orthogonalLoop=1;jettySize=auto;html=1;exitX=0;exitY=0.5;exitDx=0;exitDy=0;entryX=1;entryY=0.5;entryDx=0;entryDy=0;fillColor=#60a917;strokeColor=#2D7600;fontSize=11;verticalAlign=middle;align=center;fontStyle=0" parent="1" source="A9NY03qchNruchLS8FG4-7" target="A9NY03qchNruchLS8FG4-4" edge="1">
          <mxGeometry relative="1" as="geometry" />
        </mxCell>
        <mxCell id="A9NY03qchNruchLS8FG4-24" style="edgeStyle=orthogonalEdgeStyle;rounded=0;orthogonalLoop=1;jettySize=auto;html=1;exitX=0;exitY=0.5;exitDx=0;exitDy=0;entryX=1;entryY=0.5;entryDx=0;entryDy=0;fillColor=#60a917;strokeColor=#2D7600;fontSize=11;verticalAlign=middle;align=center;fontStyle=0" parent="1" source="A9NY03qchNruchLS8FG4-8" target="A9NY03qchNruchLS8FG4-4" edge="1">
          <mxGeometry relative="1" as="geometry" />
        </mxCell>
        <mxCell id="A9NY03qchNruchLS8FG4-37" value="" style="edgeStyle=orthogonalEdgeStyle;rounded=0;orthogonalLoop=1;jettySize=auto;html=1;fontSize=11;verticalAlign=middle;align=center;fontStyle=0" parent="1" source="A9NY03qchNruchLS8FG4-6" target="A9NY03qchNruchLS8FG4-25" edge="1">
          <mxGeometry relative="1" as="geometry" />
        </mxCell>
        <mxCell id="A9NY03qchNruchLS8FG4-36" value="" style="edgeStyle=orthogonalEdgeStyle;rounded=0;orthogonalLoop=1;jettySize=auto;html=1;fontSize=11;verticalAlign=middle;align=center;fontStyle=0" parent="1" source="A9NY03qchNruchLS8FG4-7" target="A9NY03qchNruchLS8FG4-26" edge="1">
          <mxGeometry relative="1" as="geometry" />
        </mxCell>
        <mxCell id="A9NY03qchNruchLS8FG4-35" value="" style="edgeStyle=orthogonalEdgeStyle;rounded=0;orthogonalLoop=1;jettySize=auto;html=1;fontSize=11;verticalAlign=middle;align=center;fontStyle=0" parent="1" source="A9NY03qchNruchLS8FG4-8" target="A9NY03qchNruchLS8FG4-27" edge="1">
          <mxGeometry relative="1" as="geometry" />
        </mxCell>
        <mxCell id="96aiNxKqmstkjz0yIn3r-8" value="" style="edgeStyle=orthogonalEdgeStyle;rounded=0;orthogonalLoop=1;jettySize=auto;html=1;" edge="1" parent="1" source="A9NY03qchNruchLS8FG4-25" target="96aiNxKqmstkjz0yIn3r-2">
          <mxGeometry relative="1" as="geometry" />
        </mxCell>
        <mxCell id="A9NY03qchNruchLS8FG4-25" value="NzbPostResource" style="rounded=0;html=1;movable=1;resizable=1;rotatable=1;deletable=1;editable=1;locked=0;connectable=1;fillColor=#1ba1e2;fontColor=#ffffff;strokeColor=#006EAF;fontSize=11;verticalAlign=middle;align=center;fontStyle=0" parent="1" vertex="1">
          <mxGeometry x="200" y="510" width="103.33333333333334" height="50" as="geometry" />
        </mxCell>
        <mxCell id="96aiNxKqmstkjz0yIn3r-9" value="" style="edgeStyle=orthogonalEdgeStyle;rounded=0;orthogonalLoop=1;jettySize=auto;html=1;" edge="1" parent="1" source="A9NY03qchNruchLS8FG4-26" target="96aiNxKqmstkjz0yIn3r-3">
          <mxGeometry relative="1" as="geometry" />
        </mxCell>
        <mxCell id="A9NY03qchNruchLS8FG4-26" value=".." style="rounded=0;html=1;movable=1;resizable=1;rotatable=1;deletable=1;editable=1;locked=0;connectable=1;fillColor=#1ba1e2;fontColor=#ffffff;strokeColor=#006EAF;fontSize=11;verticalAlign=middle;align=center;fontStyle=0" parent="1" vertex="1">
          <mxGeometry x="308.33" y="510" width="103.33333333333334" height="50" as="geometry" />
        </mxCell>
        <mxCell id="96aiNxKqmstkjz0yIn3r-10" value="" style="edgeStyle=orthogonalEdgeStyle;rounded=0;orthogonalLoop=1;jettySize=auto;html=1;" edge="1" parent="1" source="A9NY03qchNruchLS8FG4-27" target="96aiNxKqmstkjz0yIn3r-4">
          <mxGeometry relative="1" as="geometry" />
        </mxCell>
        <mxCell id="A9NY03qchNruchLS8FG4-27" value=".." style="rounded=0;html=1;movable=1;resizable=1;rotatable=1;deletable=1;editable=1;locked=0;connectable=1;fillColor=#1ba1e2;fontColor=#ffffff;strokeColor=#006EAF;fontSize=11;verticalAlign=middle;align=center;fontStyle=0" parent="1" vertex="1">
          <mxGeometry x="416.66999999999996" y="510" width="103.33333333333334" height="50" as="geometry" />
        </mxCell>
        <mxCell id="A9NY03qchNruchLS8FG4-29" value="Newsserver" style="rounded=0;html=1;fillColor=#1ba1e2;fontColor=#ffffff;strokeColor=#006EAF;fontSize=11;verticalAlign=middle;align=center;fontStyle=1" parent="1" vertex="1">
          <mxGeometry x="190" y="643" width="910" height="40" as="geometry" />
        </mxCell>
        <mxCell id="A9NY03qchNruchLS8FG4-41" value="UnrarFileStreamerResource" style="rounded=0;html=1;movable=1;resizable=1;rotatable=1;deletable=1;editable=1;locked=0;connectable=1;fillColor=#a20025;fontColor=#ffffff;strokeColor=#6F0000;fontSize=11;verticalAlign=middle;align=center;fontStyle=0" parent="1" vertex="1">
          <mxGeometry x="540" y="338.61" width="198.34" height="50" as="geometry" />
        </mxCell>
        <mxCell id="A9NY03qchNruchLS8FG4-42" style="edgeStyle=orthogonalEdgeStyle;rounded=0;orthogonalLoop=1;jettySize=auto;html=1;entryX=0.476;entryY=-0.019;entryDx=0;entryDy=0;entryPerimeter=0;fontSize=11;verticalAlign=middle;align=center;fontStyle=0" parent="1" source="A9NY03qchNruchLS8FG4-2" target="A9NY03qchNruchLS8FG4-41" edge="1">
          <mxGeometry relative="1" as="geometry" />
        </mxCell>
        <mxCell id="czyXKAuGXq5hPH-M7tWx-14" value="" style="edgeStyle=orthogonalEdgeStyle;rounded=0;orthogonalLoop=1;jettySize=auto;html=1;" parent="1" source="A9NY03qchNruchLS8FG4-43" target="czyXKAuGXq5hPH-M7tWx-13" edge="1">
          <mxGeometry relative="1" as="geometry" />
        </mxCell>
        <mxCell id="A9NY03qchNruchLS8FG4-43" value="Movie.part1.rar" style="html=1;shape=mxgraph.basic.document;fillColor=#76608a;fontColor=#ffffff;strokeColor=#432D57;fontSize=11;verticalAlign=middle;align=center;fontStyle=0" parent="1" vertex="1">
          <mxGeometry x="750" y="246" width="220" height="50" as="geometry" />
        </mxCell>
        <mxCell id="A9NY03qchNruchLS8FG4-60" style="edgeStyle=orthogonalEdgeStyle;rounded=0;orthogonalLoop=1;jettySize=auto;html=1;entryX=0.5;entryY=0;entryDx=0;entryDy=0;fontSize=11;verticalAlign=middle;align=center;fontStyle=0" parent="1" source="A9NY03qchNruchLS8FG4-44" target="A9NY03qchNruchLS8FG4-53" edge="1">
          <mxGeometry relative="1" as="geometry" />
        </mxCell>
        <mxCell id="A9NY03qchNruchLS8FG4-44" value="Movie.part2.rar" style="html=1;shape=mxgraph.basic.document;fillColor=#76608a;fontColor=#ffffff;strokeColor=#432D57;fontSize=11;verticalAlign=middle;align=center;fontStyle=0" parent="1" vertex="1">
          <mxGeometry x="980" y="246" width="110" height="50" as="geometry" />
        </mxCell>
        <mxCell id="A9NY03qchNruchLS8FG4-48" value="" style="edgeStyle=orthogonalEdgeStyle;rounded=0;orthogonalLoop=1;jettySize=auto;html=1;fontSize=11;verticalAlign=middle;align=center;fontStyle=0" parent="1" source="A9NY03qchNruchLS8FG4-49" target="A9NY03qchNruchLS8FG4-50" edge="1">
          <mxGeometry relative="1" as="geometry" />
        </mxCell>
        <mxCell id="A9NY03qchNruchLS8FG4-57" style="edgeStyle=orthogonalEdgeStyle;rounded=0;orthogonalLoop=1;jettySize=auto;html=1;entryX=1;entryY=0.5;entryDx=0;entryDy=0;fillColor=#60a917;strokeColor=#2D7600;fontSize=11;verticalAlign=middle;align=center;fontStyle=0" parent="1" source="A9NY03qchNruchLS8FG4-49" target="A9NY03qchNruchLS8FG4-4" edge="1">
          <mxGeometry relative="1" as="geometry" />
        </mxCell>
        <mxCell id="96aiNxKqmstkjz0yIn3r-11" value="" style="edgeStyle=orthogonalEdgeStyle;rounded=0;orthogonalLoop=1;jettySize=auto;html=1;" edge="1" parent="1" source="A9NY03qchNruchLS8FG4-50" target="96aiNxKqmstkjz0yIn3r-5">
          <mxGeometry relative="1" as="geometry" />
        </mxCell>
        <mxCell id="A9NY03qchNruchLS8FG4-50" value=".." style="rounded=0;html=1;movable=1;resizable=1;rotatable=1;deletable=1;editable=1;locked=0;connectable=1;fillColor=#1ba1e2;fontColor=#ffffff;strokeColor=#006EAF;fontSize=11;verticalAlign=middle;align=center;fontStyle=0" parent="1" vertex="1">
          <mxGeometry x="753.33" y="510" width="103.33333333333334" height="50" as="geometry" />
        </mxCell>
        <mxCell id="A9NY03qchNruchLS8FG4-52" value="" style="edgeStyle=orthogonalEdgeStyle;rounded=0;orthogonalLoop=1;jettySize=auto;html=1;fontSize=11;verticalAlign=middle;align=center;fontStyle=0" parent="1" source="A9NY03qchNruchLS8FG4-53" target="A9NY03qchNruchLS8FG4-54" edge="1">
          <mxGeometry relative="1" as="geometry" />
        </mxCell>
        <mxCell id="A9NY03qchNruchLS8FG4-58" style="edgeStyle=orthogonalEdgeStyle;rounded=0;orthogonalLoop=1;jettySize=auto;html=1;entryX=1;entryY=0.5;entryDx=0;entryDy=0;fillColor=#60a917;strokeColor=#2D7600;fontSize=11;verticalAlign=middle;align=center;fontStyle=0" parent="1" source="A9NY03qchNruchLS8FG4-53" target="A9NY03qchNruchLS8FG4-4" edge="1">
          <mxGeometry relative="1" as="geometry" />
        </mxCell>
        <mxCell id="96aiNxKqmstkjz0yIn3r-13" value="" style="edgeStyle=orthogonalEdgeStyle;rounded=0;orthogonalLoop=1;jettySize=auto;html=1;" edge="1" parent="1" source="A9NY03qchNruchLS8FG4-54" target="96aiNxKqmstkjz0yIn3r-7">
          <mxGeometry relative="1" as="geometry" />
        </mxCell>
        <mxCell id="A9NY03qchNruchLS8FG4-54" value=".." style="rounded=0;html=1;movable=1;resizable=1;rotatable=1;deletable=1;editable=1;locked=0;connectable=1;fillColor=#1ba1e2;fontColor=#ffffff;strokeColor=#006EAF;fontSize=11;verticalAlign=middle;align=center;fontStyle=0" parent="1" vertex="1">
          <mxGeometry x="983.33" y="510" width="103.33333333333334" height="50" as="geometry" />
        </mxCell>
        <mxCell id="A9NY03qchNruchLS8FG4-6" value="FullCacheResource" style="rounded=0;html=1;movable=1;resizable=1;rotatable=1;deletable=1;editable=1;locked=0;connectable=1;fillColor=#008a00;strokeColor=#005700;fontColor=#ffffff;fontSize=11;verticalAlign=middle;align=center;fontStyle=0" parent="1" vertex="1">
          <mxGeometry x="200" y="426" width="103.33333333333334" height="50" as="geometry" />
        </mxCell>
        <mxCell id="A9NY03qchNruchLS8FG4-64" style="edgeStyle=orthogonalEdgeStyle;rounded=0;orthogonalLoop=1;jettySize=auto;html=1;entryX=0.5;entryY=1;entryDx=0;entryDy=0;startArrow=classic;startFill=1;endArrow=none;endFill=0;verticalAlign=middle;align=center;fontStyle=0" parent="1" source="A9NY03qchNruchLS8FG4-7" target="A9NY03qchNruchLS8FG4-61" edge="1">
          <mxGeometry relative="1" as="geometry" />
        </mxCell>
        <mxCell id="A9NY03qchNruchLS8FG4-7" value=".." style="rounded=0;html=1;movable=1;resizable=1;rotatable=1;deletable=1;editable=1;locked=0;connectable=1;fillColor=#008a00;strokeColor=#005700;fontColor=#ffffff;fontSize=11;verticalAlign=middle;align=center;fontStyle=0" parent="1" vertex="1">
          <mxGeometry x="308.33333333333337" y="426" width="103.33333333333334" height="50" as="geometry" />
        </mxCell>
        <mxCell id="A9NY03qchNruchLS8FG4-8" value=".." style="rounded=0;html=1;movable=1;resizable=1;rotatable=1;deletable=1;editable=1;locked=0;connectable=1;fillColor=#008a00;strokeColor=#005700;fontColor=#ffffff;fontSize=11;verticalAlign=middle;align=center;fontStyle=0" parent="1" vertex="1">
          <mxGeometry x="416.6666666666667" y="426" width="103.33333333333334" height="50" as="geometry" />
        </mxCell>
        <mxCell id="A9NY03qchNruchLS8FG4-49" value=".." style="rounded=0;html=1;movable=1;resizable=1;rotatable=1;deletable=1;editable=1;locked=0;connectable=1;fillColor=#008a00;strokeColor=#005700;fontColor=#ffffff;fontSize=11;verticalAlign=middle;align=center;fontStyle=0" parent="1" vertex="1">
          <mxGeometry x="753.33" y="426" width="103.33333333333334" height="50" as="geometry" />
        </mxCell>
        <mxCell id="A9NY03qchNruchLS8FG4-53" value=".." style="rounded=0;html=1;movable=1;resizable=1;rotatable=1;deletable=1;editable=1;locked=0;connectable=1;fillColor=#008a00;strokeColor=#005700;fontColor=#ffffff;fontSize=11;textShadow=0;verticalAlign=middle;align=center;fontStyle=0" parent="1" vertex="1">
          <mxGeometry x="983.33" y="426" width="103.33333333333334" height="50" as="geometry" />
        </mxCell>
        <mxCell id="A9NY03qchNruchLS8FG4-61" value="MergerResource" style="rounded=0;html=1;movable=1;resizable=1;rotatable=1;deletable=1;editable=1;locked=0;connectable=1;fillColor=#a20025;fontColor=#ffffff;strokeColor=#6F0000;fontSize=11;verticalAlign=middle;align=center;fontStyle=0" parent="1" vertex="1">
          <mxGeometry x="200" y="339" width="320" height="50" as="geometry" />
        </mxCell>
        <mxCell id="A9NY03qchNruchLS8FG4-63" style="edgeStyle=orthogonalEdgeStyle;rounded=0;orthogonalLoop=1;jettySize=auto;html=1;entryX=0.163;entryY=1.013;entryDx=0;entryDy=0;entryPerimeter=0;startArrow=classic;startFill=1;endArrow=none;endFill=0;verticalAlign=middle;align=center;fontStyle=0" parent="1" source="A9NY03qchNruchLS8FG4-6" target="A9NY03qchNruchLS8FG4-61" edge="1">
          <mxGeometry relative="1" as="geometry" />
        </mxCell>
        <mxCell id="A9NY03qchNruchLS8FG4-65" style="edgeStyle=orthogonalEdgeStyle;rounded=0;orthogonalLoop=1;jettySize=auto;html=1;entryX=0.839;entryY=1;entryDx=0;entryDy=0;entryPerimeter=0;startArrow=classic;startFill=1;endArrow=none;endFill=0;verticalAlign=middle;align=center;fontStyle=0" parent="1" source="A9NY03qchNruchLS8FG4-8" target="A9NY03qchNruchLS8FG4-61" edge="1">
          <mxGeometry relative="1" as="geometry" />
        </mxCell>
        <mxCell id="A9NY03qchNruchLS8FG4-70" value="" style="edgeStyle=orthogonalEdgeStyle;rounded=0;orthogonalLoop=1;jettySize=auto;html=1;" parent="1" source="A9NY03qchNruchLS8FG4-68" target="A9NY03qchNruchLS8FG4-1" edge="1">
          <mxGeometry relative="1" as="geometry" />
        </mxCell>
        <mxCell id="A9NY03qchNruchLS8FG4-68" value="WebDAV" style="rounded=0;html=1;movable=1;resizable=1;rotatable=1;deletable=1;editable=1;locked=0;connectable=1;fillColor=#a0522d;strokeColor=#6D1F00;fontColor=#ffffff;fontSize=11;verticalAlign=middle;align=center;fontStyle=0" parent="1" vertex="1">
          <mxGeometry x="565" y="70" width="160" height="50" as="geometry" />
        </mxCell>
        <mxCell id="czyXKAuGXq5hPH-M7tWx-3" value="" style="edgeStyle=orthogonalEdgeStyle;rounded=0;orthogonalLoop=1;jettySize=auto;html=1;fontSize=11;verticalAlign=middle;align=center;fontStyle=0" parent="1" source="czyXKAuGXq5hPH-M7tWx-6" target="czyXKAuGXq5hPH-M7tWx-4" edge="1">
          <mxGeometry relative="1" as="geometry" />
        </mxCell>
        <mxCell id="96aiNxKqmstkjz0yIn3r-12" value="" style="edgeStyle=orthogonalEdgeStyle;rounded=0;orthogonalLoop=1;jettySize=auto;html=1;" edge="1" parent="1" source="czyXKAuGXq5hPH-M7tWx-4" target="96aiNxKqmstkjz0yIn3r-6">
          <mxGeometry relative="1" as="geometry" />
        </mxCell>
        <mxCell id="czyXKAuGXq5hPH-M7tWx-4" value=".." style="rounded=0;html=1;movable=1;resizable=1;rotatable=1;deletable=1;editable=1;locked=0;connectable=1;fillColor=#1ba1e2;fontColor=#ffffff;strokeColor=#006EAF;fontSize=11;verticalAlign=middle;align=center;fontStyle=0" parent="1" vertex="1">
          <mxGeometry x="859.99" y="510" width="103.33333333333334" height="50" as="geometry" />
        </mxCell>
        <mxCell id="czyXKAuGXq5hPH-M7tWx-17" style="edgeStyle=orthogonalEdgeStyle;rounded=0;orthogonalLoop=1;jettySize=auto;html=1;entryX=0.746;entryY=1.004;entryDx=0;entryDy=0;entryPerimeter=0;startArrow=classic;startFill=1;endArrow=none;endFill=0;" parent="1" source="czyXKAuGXq5hPH-M7tWx-6" target="czyXKAuGXq5hPH-M7tWx-13" edge="1">
          <mxGeometry relative="1" as="geometry" />
        </mxCell>
        <mxCell id="czyXKAuGXq5hPH-M7tWx-6" value=".." style="rounded=0;html=1;movable=1;resizable=1;rotatable=1;deletable=1;editable=1;locked=0;connectable=1;fillColor=#008a00;strokeColor=#005700;fontColor=#ffffff;fontSize=11;verticalAlign=middle;align=center;fontStyle=0" parent="1" vertex="1">
          <mxGeometry x="859.99" y="426" width="103.33333333333334" height="50" as="geometry" />
        </mxCell>
        <mxCell id="czyXKAuGXq5hPH-M7tWx-13" value="MergerResource" style="rounded=0;html=1;movable=1;resizable=1;rotatable=1;deletable=1;editable=1;locked=0;connectable=1;fillColor=#a20025;fontColor=#ffffff;strokeColor=#6F0000;fontSize=11;verticalAlign=middle;align=center;fontStyle=0" parent="1" vertex="1">
          <mxGeometry x="755" y="339.39" width="210" height="49.22" as="geometry" />
        </mxCell>
        <mxCell id="czyXKAuGXq5hPH-M7tWx-15" style="edgeStyle=orthogonalEdgeStyle;rounded=0;orthogonalLoop=1;jettySize=auto;html=1;entryX=0.24;entryY=1.001;entryDx=0;entryDy=0;entryPerimeter=0;startArrow=classic;startFill=1;endArrow=none;endFill=0;" parent="1" source="A9NY03qchNruchLS8FG4-49" target="czyXKAuGXq5hPH-M7tWx-13" edge="1">
          <mxGeometry relative="1" as="geometry" />
        </mxCell>
        <mxCell id="Qzly1PPEFfRI5uTMPWjF-1" style="edgeStyle=orthogonalEdgeStyle;rounded=0;orthogonalLoop=1;jettySize=auto;html=1;exitX=0.75;exitY=0;exitDx=0;exitDy=0;entryX=0.262;entryY=0.986;entryDx=0;entryDy=0;entryPerimeter=0;fillColor=#d80073;strokeColor=#A50040;dashed=1;" parent="1" source="A9NY03qchNruchLS8FG4-41" target="A9NY03qchNruchLS8FG4-43" edge="1">
          <mxGeometry relative="1" as="geometry" />
        </mxCell>
        <mxCell id="Qzly1PPEFfRI5uTMPWjF-2" style="edgeStyle=orthogonalEdgeStyle;rounded=0;orthogonalLoop=1;jettySize=auto;html=1;exitX=0.75;exitY=0;exitDx=0;exitDy=0;entryX=0.278;entryY=0.976;entryDx=0;entryDy=0;entryPerimeter=0;fillColor=#d80073;strokeColor=#A50040;dashed=1;" parent="1" source="A9NY03qchNruchLS8FG4-41" target="A9NY03qchNruchLS8FG4-44" edge="1">
          <mxGeometry relative="1" as="geometry" />
        </mxCell>
        <mxCell id="96aiNxKqmstkjz0yIn3r-2" value="Post" style="html=1;shape=mxgraph.basic.document;fillColor=#647687;fontColor=#ffffff;strokeColor=#314354;fontSize=11;verticalAlign=middle;align=center;fontStyle=0" vertex="1" parent="1">
          <mxGeometry x="199.17000000000002" y="607" width="105" height="47" as="geometry" />
        </mxCell>
        <mxCell id="96aiNxKqmstkjz0yIn3r-3" value="..." style="html=1;shape=mxgraph.basic.document;fillColor=#647687;fontColor=#ffffff;strokeColor=#314354;fontSize=11;verticalAlign=middle;align=center;fontStyle=0" vertex="1" parent="1">
          <mxGeometry x="307.5" y="607" width="105" height="47" as="geometry" />
        </mxCell>
        <mxCell id="96aiNxKqmstkjz0yIn3r-4" value="..." style="html=1;shape=mxgraph.basic.document;fillColor=#647687;fontColor=#ffffff;strokeColor=#314354;fontSize=11;verticalAlign=middle;align=center;fontStyle=0" vertex="1" parent="1">
          <mxGeometry x="416.66999999999996" y="607" width="105" height="47" as="geometry" />
        </mxCell>
        <mxCell id="96aiNxKqmstkjz0yIn3r-5" value=".." style="html=1;shape=mxgraph.basic.document;fillColor=#647687;fontColor=#ffffff;strokeColor=#314354;fontSize=11;verticalAlign=middle;align=center;fontStyle=0" vertex="1" parent="1">
          <mxGeometry x="752.5" y="607" width="105" height="47" as="geometry" />
        </mxCell>
        <mxCell id="96aiNxKqmstkjz0yIn3r-6" value=".." style="html=1;shape=mxgraph.basic.document;fillColor=#647687;fontColor=#ffffff;strokeColor=#314354;fontSize=11;verticalAlign=middle;align=center;fontStyle=0" vertex="1" parent="1">
          <mxGeometry x="859.16" y="607" width="105" height="47" as="geometry" />
        </mxCell>
        <mxCell id="96aiNxKqmstkjz0yIn3r-7" value=".." style="html=1;shape=mxgraph.basic.document;fillColor=#647687;fontColor=#ffffff;strokeColor=#314354;fontSize=11;verticalAlign=middle;align=center;fontStyle=0" vertex="1" parent="1">
          <mxGeometry x="982.5" y="607" width="105" height="47" as="geometry" />
        </mxCell>
        <mxCell id="96aiNxKqmstkjz0yIn3r-15" value="" style="edgeStyle=orthogonalEdgeStyle;rounded=0;orthogonalLoop=1;jettySize=auto;html=1;endArrow=none;endFill=0;dashed=1;dashPattern=1 4;" edge="1" parent="1" source="96aiNxKqmstkjz0yIn3r-14" target="96aiNxKqmstkjz0yIn3r-2">
          <mxGeometry relative="1" as="geometry" />
        </mxCell>
        <mxCell id="96aiNxKqmstkjz0yIn3r-14" value="Id&lt;br style=&quot;font-size: 9px;&quot;&gt;Group&lt;div style=&quot;font-size: 9px;&quot;&gt;&lt;div style=&quot;font-size: 9px;&quot;&gt;Poster&lt;/div&gt;&lt;div style=&quot;font-size: 9px;&quot;&gt;Date&lt;br&gt;Content&lt;/div&gt;&lt;/div&gt;" style="text;html=1;align=right;verticalAlign=middle;resizable=0;points=[];autosize=1;strokeColor=none;fillColor=none;fontSize=9;spacing=6;" vertex="1" parent="1">
          <mxGeometry x="100" y="590.5" width="60" height="80" as="geometry" />
        </mxCell>
      </root>
    </mxGraphModel>
  </diagram>
</mxfile>
